<svg xmlns="http://www.w3.org/2000/svg" viewBox="0 0 75.59 61.85"><defs><style>.cls-1{fill:#00becc;}</style></defs><title>b-acc-1Recurso 1</title><g id="Capa_2" data-name="Capa 2"><g id="Capa_1-2" data-name="Capa 1"><path class="cls-1" d="M.5,60.4c.68,1,1.92,1.45,3.6,1.45,8.54,0,28.13-11.54,38.92-18.79,12.9-8.68,36.21-26.71,32.09-32.84-2-3-9-1.46-20.77,4.46L52,11.16A25.24,25.24,0,0,0,10.08,39.32l2.37,3.52C2.53,51.52-1.5,57.43.5,60.4ZM9.2,21a22.22,22.22,0,0,1,40.27-8.14l.51.76c-1.23,1.27-2.48,2.52-3.76,3.72a1.5,1.5,0,0,0,2,2.22l0,0c1.16-1.09,2.3-2.22,3.42-3.36L54,19.49a107,107,0,0,1-36.9,24.82L14.79,41A112.73,112.73,0,0,0,34.37,30.54a1.5,1.5,0,0,0-1.67-2.49A109.46,109.46,0,0,1,13.08,38.41l-.51-.8A22.07,22.07,0,0,1,9.2,21Zm4.94,24.38L15.23,47a1.49,1.49,0,0,0,1.79.56A110.1,110.1,0,0,0,57,20.68a1.51,1.51,0,0,0,.16-1.87L56,17.19c12.09-6,16.17-5.74,16.58-5.31.92,2.06-9,13.73-31.23,28.73S4.54,60.34,3,58.73C2.74,58.17,4,54.3,14.14,45.35Z"/><path class="cls-1" d="M37.67,28.74a1,1,0,0,0,1.75-.21l1.75-4L45.54,24a1,1,0,0,0,.9-1.09,1,1,0,0,0-.22-.54L43.49,18.7a1,1,0,0,0-1.39-.24.93.93,0,0,0-.36.45l-1.75,4-4.37.58a1,1,0,0,0-.9,1.09.9.9,0,0,0,.22.54Z"/><path class="cls-1" d="M15.71,28.78a1.5,1.5,0,0,0,1.5-1.5,1.57,1.57,0,0,0-.26-.84A8.25,8.25,0,0,1,19.19,15a1.5,1.5,0,0,0-1.67-2.49,11.25,11.25,0,0,0-3,15.6A1.5,1.5,0,0,0,15.71,28.78Z"/></g></g></svg>