<svg xmlns="http://www.w3.org/2000/svg" viewBox="0 0 85.62 34.77"><defs><style>.cls-1{fill:#00becc;}</style></defs><title>b-acc-2Recurso 2</title><g id="Capa_2" data-name="Capa 2"><g id="Capa_1-2" data-name="Capa 1"><path class="cls-1" d="M65.78,0C64.21,0,62.61,0,61,.06A1.32,1.32,0,0,0,60.64,0H19.83C13.74,0,7.45,0,3.56,4.24.64,7.42-.44,12.55.16,19.92c.8,9.3,7,14.85,16.46,14.85s23.05-11.84,23.05-22.9a16.56,16.56,0,0,0-.23-2.81c2.57-1.34,4.74-1.28,6.71.16a16.81,16.81,0,0,0-.21,2.65c0,11.05,13.53,22.9,23,22.9s15.67-5.55,16.46-14.85c.63-7.37-.48-12.5-3.4-15.68C78.16,0,71.87,0,65.78,0ZM16.62,31.77c-3.74,0-12.54-1.18-13.47-12.1-.56-6.49.3-10.87,2.62-13.4C8.76,3,14.14,3,19.83,3c11.45,0,16.84.88,16.84,8.88C36.67,21.1,24.53,31.77,16.62,31.77ZM47.08,6.21Q43.21,4,38.55,6.15A8.67,8.67,0,0,0,36,3H49.64A8.61,8.61,0,0,0,47.08,6.21ZM82.46,19.67c-.94,10.92-9.73,12.1-13.47,12.1-7.92,0-20-10.67-20-19.9,0-8,5.39-8.88,16.84-8.88,5.69,0,11.06,0,14.06,3.27C82.16,8.79,83,13.18,82.46,19.67Z"/><path class="cls-1" d="M17.43,6.08c-3.11,0-6.32,0-8.44,2.3-1.56,1.7-2.17,4.38-1.84,8.17a1.5,1.5,0,0,0,1.49,1.37h.13a1.49,1.49,0,0,0,1.37-1.62h0c-.25-2.87.11-4.85,1.06-5.88,1.22-1.33,3.65-1.33,6.23-1.33a1.5,1.5,0,0,0,0-3Z"/><path class="cls-1" d="M65.78,5.08c-6.07,0-13.62,0-13.62,8.35a1.5,1.5,0,1,0,3,0c0-4.85,3.24-5.35,10.62-5.35a1.5,1.5,0,0,0,0-3Z"/></g></g></svg>