<svg xmlns="http://www.w3.org/2000/svg" viewBox="0 0 71 71.09"><defs><style>.cls-1{fill:#00becc;}</style></defs><title>b-acc-3Recurso 3</title><g id="Capa_2" data-name="Capa 2"><g id="Capa_1-2" data-name="Capa 1"><path class="cls-1" d="M35.53,22.4a13.1,13.1,0,1,0,9.34,3.82A13,13,0,0,0,35.53,22.4ZM42.9,42.93a10,10,0,0,1-7.37,3.16,10.33,10.33,0,0,1-7.37-3,10.56,10.56,0,0,1,0-14.87A10.42,10.42,0,0,1,42.9,42.93Zm27-34.34-7.36-7.5a4.06,4.06,0,0,0-5.53,0L40.27,17.8H40l-1.71-.4a.78.78,0,0,1-.52-.13,2.56,2.56,0,0,1-.92-.13H35.4a18,18,0,0,0-11.71,4.21,13.19,13.19,0,0,0-1.32,1.18,8.62,8.62,0,0,0-1.05,1.19c-.13.13-.13.26-.27.39-.26.4-.52.66-.79,1.06-.13.13-.13.26-.26.26a5.83,5.83,0,0,0-.66,1.18c-.13.14-.13.4-.26.53a3.58,3.58,0,0,1-.53,1.05c-.13.27-.13.4-.26.66a8.52,8.52,0,0,1-.39,1c0,.14-.14.4-.14.53a3.92,3.92,0,0,0-.26,1.18.49.49,0,0,1-.13.4c-.13.39-.13.92-.26,1.32v.52c0,.53-.13,1-.13,1.45v1.58a1,1,0,0,0,.13.66,5.63,5.63,0,0,0,.13.65c.13.53.26,1.19.39,1.71v.27L1.18,56.88A4.07,4.07,0,0,0,0,59.77a3.58,3.58,0,0,0,1.18,2.77L8.55,70a4.24,4.24,0,0,0,2.77,1,3.58,3.58,0,0,0,2.76-1.18L30.66,53.33h.13l1.84.39H33c.26,0,.66.13.92.13h1.32a18.75,18.75,0,0,0,13-5.39,8.72,8.72,0,0,0,1.06-1.19c.13-.13.13-.26.26-.39l.79-1.19c0-.13.13-.13.13-.26a5.39,5.39,0,0,0,.66-1.18c.13-.13.13-.4.26-.53.13-.39.4-.66.53-1,.13-.13.13-.4.26-.53l.4-1.18c0-.13.13-.4.13-.53A3.91,3.91,0,0,0,53,39.12v-.27c.13-.52.13-.92.26-1.45V37c0-.53.14-1,.14-1.58h0V33.85a1.15,1.15,0,0,0-.14-.66c0-.26-.13-.52-.13-.79a7.15,7.15,0,0,0-.39-1.58v-.26L69.35,14A3.34,3.34,0,0,0,69.87,8.59Zm-58,59.74a1.43,1.43,0,0,1-1.44-.26L3,60.56a.92.92,0,0,1-.4-.79,1.19,1.19,0,0,1,.4-.92l.79-.92h8ZM14.47,66V55.3h-8l4-3.95h8V61.88h0Zm6.58-6.58V48.72H13l5.66-5.66a17.29,17.29,0,0,0,3.81,5.53A18.17,18.17,0,0,0,28,52.41ZM51.32,35.83v1.44c0,.4-.13.79-.13,1.32,0,.13-.13.39-.13.53a1.74,1.74,0,0,1-.27.78c0,.14-.13.4-.13.53l-.39,1.19c-.13.13-.13.39-.27.52l-.39.79c-.13.13-.13.26-.26.53s-.4.66-.66,1c-.13.13-.13.26-.26.26a3.6,3.6,0,0,1-.66.79c-.13.13-.13.27-.27.4-.26.39-.65.66-.92,1a16.58,16.58,0,0,1-11,4.34H34.21c-.39,0-.65-.13-1.05-.13H32.9c-.4,0-.66-.13-1.06-.13h-.13c-.39-.13-.79-.13-1.05-.26l-.26-.13a15.82,15.82,0,0,1-6.19-3.82,16.79,16.79,0,0,1-3.81-6.19l-.14-.26c-.13-.26-.13-.66-.26-.92v-.26a2.28,2.28,0,0,1-.13-.92,1,1,0,0,0-.13-.53c0-.4-.13-.66-.13-1v-2.9c0-.39.13-.79.13-1.31,0-.14.13-.4.13-.53a1.89,1.89,0,0,1,.26-.79c0-.13.13-.26.13-.53l.4-1.18c.13-.13.13-.4.26-.53l.4-.79c.13-.13.13-.26.26-.52a7.54,7.54,0,0,1,.66-1.06c.13-.13.13-.26.26-.26.27-.26.4-.53.66-.79s.13-.26.26-.26c.27-.4.66-.66.92-1.05s.79-.66,1.19-1.06a16.7,16.7,0,0,1,10-3.42h1.32a2.28,2.28,0,0,1,.92.13H38c.39,0,.66.13,1,.13h.13c.4.14.79.14,1.06.27l.26.13a15.67,15.67,0,0,1,6.18,3.82,16.65,16.65,0,0,1,3.82,6.18l.13.26c.13.27.13.66.27.92v.27a2.26,2.26,0,0,1,.13.92,1,1,0,0,0,.13.53c0,.39.13.65.13,1.05v1.45Zm.92-7.77a17.4,17.4,0,0,0-3.81-5.53,18.26,18.26,0,0,0-5.53-3.81l7.1-7v9.35h9.22Zm9.61-9.47H52.64V9.24H52.5l4.08-4.08v9.35H65.8ZM68.3,12l-9.08-.13V2.66c.52-.13,1.05-.13,1.31.27l7.37,7.5A1.44,1.44,0,0,1,68.3,12ZM36.85,30.3H34.21v6.58h9.21V34.25H36.85Zm11.84,22L50.4,54,54,50.43l-1.71-1.71Z"/></g></g></svg>