<svg xmlns="http://www.w3.org/2000/svg" viewBox="0 0 69.24 68.83"><defs><style>.cls-1{fill:#00becc;}</style></defs><title>b-jacket-3Recurso 4</title><g id="Capa_2" data-name="Capa 2"><g id="Capa_1-2" data-name="Capa 1"><path class="cls-1" d="M61.51,21.64l-4-8.5a7.77,7.77,0,0,0-4.08-3.86l-7.7-3.12c-.2-.5-.4-1-.56-1.31A5.25,5.25,0,0,0,42.5,2.29L39.39.93l-.06,0a3.48,3.48,0,0,0-.48-.21A12.68,12.68,0,0,0,37.51.32l-.11,0h-.06a13.13,13.13,0,0,0-5.75.06h0l0,0-.35.09-.29.08-.11,0-.38.11h0l-.27.12a3,3,0,0,0-.32.12L26.68,2.29a5.19,5.19,0,0,0-2.62,2.56c-.17.37-.37.83-.57,1.33l-7.64,3.1a7.83,7.83,0,0,0-4.09,3.86l-4,8.5a72.36,72.36,0,0,0-7,28.15L0,67.79a1,1,0,0,0,.28.73,1,1,0,0,0,.72.31H5a1,1,0,0,0,1-.68l.4-1.21H7.77v.88a1,1,0,0,0,1,1h3a1,1,0,0,0,1-1l.54-14.93a34,34,0,0,1,.42-5.35c.09,1.81.25,3.63.46,5.43v0c.14,1.18.3,2.36.49,3.53A3.27,3.27,0,0,0,16,59.1v1.62a3,3,0,0,0,2.53,2.93c3.29.47,6.69.79,10.08.94h.18a3.75,3.75,0,0,0,2.6-1l.1-.12a1.56,1.56,0,0,0,.16.2,3.65,3.65,0,0,0,2.59,1.07h0A107.63,107.63,0,0,0,50.66,63.4l.6-.1a3,3,0,0,0,2.5-2.92V58.61a3.27,3.27,0,0,0,.85-2c.19-1.17.35-2.34.48-3.52,0,0,0,0,0,0,.21-1.8.37-3.61.46-5.43A34.09,34.09,0,0,1,56,52.94l.28,14.91a1,1,0,0,0,1,1h3a1,1,0,0,0,.72-.3,1,1,0,0,0,.28-.72l0-.87h1.64l.44,1.23a1,1,0,0,0,.94.66h3.94a1,1,0,0,0,.72-.31,1,1,0,0,0,.28-.73l-.76-18A72.17,72.17,0,0,0,61.51,21.64Zm-8.87-10.5c.15.06.28.15.42.22a17.86,17.86,0,0,0-3.48,10.55v.52a17.93,17.93,0,0,0,.53,4.32l3.42,13.69.07.15a77.75,77.75,0,0,1-.13,8.22L48.69,37a1,1,0,0,0-1.86.76l6.23,15.32c-.13,1.06-.26,2.13-.43,3.19a.68.68,0,0,0,0,.14,1.32,1.32,0,0,1-1.31,1.29H32.55V54.6a32.5,32.5,0,0,0-.62-6.3L29.4,35.69l16-12.35a1,1,0,0,0,.38-.67,1,1,0,0,0-.21-.74l-3.62-4.57h4.9a1,1,0,0,0,.72-.3,1,1,0,0,0,.28-.73,30.18,30.18,0,0,0-1.26-7.66ZM28.29,27.78l.79-1.09,1.7,1.23c-.46,1-1,2.11-1.52,3.25Zm15-22.08a27.76,27.76,0,0,1,2.46,9.66H39.85a1,1,0,0,0-.9.57A1,1,0,0,0,39.07,17l4.28,5.4L31.18,31.79c2.65-5.5,4.35-9.92,4.37-10l.2-.52h0c1.06-2.52,4.53-11.22,5.09-17.56l.86.37A3.22,3.22,0,0,1,43.31,5.7ZM37,2.26l.79.21c.2.06.41.14.61.22a.9.9,0,0,1,.45.85c-.39,4.48-2.4,10.41-3.77,14l-.47,1.19c-1.32-3.39-3.79-10.22-4.22-15.22a.91.91,0,0,1,.55-.9l.38-.14.27-.08L32,2.3A11.21,11.21,0,0,1,37,2.26ZM25.87,5.7a3.26,3.26,0,0,1,1.61-1.58l.92-.4c.55,6.34,4,15.07,5.08,17.59l.08.12c-.27.68-1,2.37-1.94,4.63l-5-3.65,4-4.24A1,1,0,0,0,30,16.5l-6.57-1A27.71,27.71,0,0,1,25.87,5.7Zm-3.25,3a30,30,0,0,0-1.26,7.63,1,1,0,0,0,.85,1l5.58.84-3.45,3.68a1,1,0,0,0-.26.78,1,1,0,0,0,.41.71l3,2.15L26.38,27a1.05,1.05,0,0,0-.15.86l1.7,5.95-.51,1a1,1,0,0,0-.11.34.21.21,0,0,1,0,.08,1.07,1.07,0,0,0,0,.25L30,48.69a30.06,30.06,0,0,1,.58,5.91v3.14H17.94a1.33,1.33,0,0,1-1.32-1.29.66.66,0,0,0,0-.14c-.17-1.06-.31-2.12-.44-3.19l6.64-16A1,1,0,1,0,21,36.36L15.77,48.88a81.35,81.35,0,0,1-.13-8.55L19,26.75a17.93,17.93,0,0,0,.53-4.32v-.52a17.86,17.86,0,0,0-3.46-10.52c.16-.08.32-.18.49-.25Zm-16,57.24,1.18-3.52,0,3.52Zm4.63-13-.51,13.94h-1l.1-10.72a1,1,0,0,0-1.95-.33l-3.69,11H2l.71-17A70.23,70.23,0,0,1,9.53,22.5l4-8.5a5.84,5.84,0,0,1,1-1.39,15.86,15.86,0,0,1,3,9.3v.52a16,16,0,0,1-.47,3.84L13.69,39.91A35.88,35.88,0,0,0,11.26,52.89ZM28.72,62.6c-3.34-.16-6.67-.47-9.9-.93a1,1,0,0,1-.81-1v-1H30.55v1.12A1.72,1.72,0,0,1,30,62.11,1.77,1.77,0,0,1,28.72,62.6ZM51,61.32l-.6.1a105,105,0,0,1-16.09,1.29h0a1.66,1.66,0,0,1-1.18-.49A1.75,1.75,0,0,1,32.55,61V59.74H51.3a3.42,3.42,0,0,0,.46,0v.68A1,1,0,0,1,51,61.32Zm10.31,4.62-.08-3.78,1.37,3.78Zm3.74.89L61,55.77a1,1,0,0,0-1.12-.64,1,1,0,0,0-.82,1l.23,10.7h-1L58,52.93a36,36,0,0,0-2.46-13.1,1,1,0,0,0-.13-.22L52.05,26.27a16,16,0,0,1-.47-3.84v-.52a15.78,15.78,0,0,1,3.08-9.35,5.83,5.83,0,0,1,1,1.44l4,8.5a70.39,70.39,0,0,1,6.77,27.37l.71,17Z"/><path class="cls-1" d="M41.67,33.51a1,1,0,0,0-.18,1.41,1,1,0,0,0,1.4.18l7.5-5.8a1,1,0,1,0-1.23-1.58Z"/><path class="cls-1" d="M38.58,51.91V54.3a1.21,1.21,0,0,0,.75,1.12L44,57.37a1,1,0,0,0,.38.07,1,1,0,0,0,.39-.07l4.68-1.95h0a1.21,1.21,0,0,0,.74-1.12V51.91A1.22,1.22,0,0,0,49,50.69H39.79A1.22,1.22,0,0,0,38.58,51.91Zm2,.78h7.63v1.09l-3.82,1.58-3.81-1.58Z"/></g></g></svg>