<svg xmlns="http://www.w3.org/2000/svg" viewBox="0 0 61.98 70.92"><defs><style>.cls-1{fill:#00becc;}</style></defs><title>b-jacket-2Recurso 3</title><g id="Capa_2" data-name="Capa 2"><g id="Capa_1-2" data-name="Capa 1"><path class="cls-1" d="M13,63.43l.64-1.94v2.89A2.57,2.57,0,0,0,16.22,67H45.7a2.57,2.57,0,0,0,2.57-2.57V61.3l.7,2.13a3.78,3.78,0,0,0,.84,1.39v3.55a2.55,2.55,0,0,0,2.54,2.55h5.31a2.55,2.55,0,0,0,2.55-2.55V64.71a3.66,3.66,0,0,0,.93-2.16l.6-8a85.11,85.11,0,0,0-3.82-32.37L57,19.32A16.49,16.49,0,0,0,45,8.24V7.09a6.13,6.13,0,0,0-4.77-6L39.81,1A39.49,39.49,0,0,0,22.17,1l-.41.09a6.13,6.13,0,0,0-4.77,6V8.25A16.49,16.49,0,0,0,5,19.32l-.91,2.82A85.11,85.11,0,0,0,.24,54.51l.6,8a3.58,3.58,0,0,0,1,2.27v3.46a2.54,2.54,0,0,0,2.54,2.54H9.73a2.54,2.54,0,0,0,2.54-2.54V64.7A3.76,3.76,0,0,0,13,63.43Zm-2.74,3.33H3.88v-.87A4.2,4.2,0,0,0,4.5,66h5a3.66,3.66,0,0,0,.75-.09Zm2-14.31a2,2,0,0,1,.65-1.81,1.93,1.93,0,0,1,1.83-.4L30,54.74v4.14l-16.3-4.82a2,2,0,0,1-1.38-1.57l-1,.11,1-.14Zm11-37.79h4.45L30,18.23v9.19L13.63,22.6A52.37,52.37,0,0,0,11,13.53a14.43,14.43,0,0,1,6.27-3.3A6.35,6.35,0,0,0,23.32,14.66ZM35.65,6.71a.74.74,0,0,1,.45,1.11l-1,1.64a18.81,18.81,0,0,0-8.18,0l-1-1.64a.72.72,0,0,1-.06-.67.74.74,0,0,1,.5-.44A19.37,19.37,0,0,1,35.65,6.71Zm9,3.51A14.53,14.53,0,0,1,51,13.53a52.12,52.12,0,0,0-2.62,9.07L32,27.42V18.23l2.22-3.57h4.44A6.35,6.35,0,0,0,44.69,10.22ZM58.21,66.76h-6.4v-.87a4.62,4.62,0,0,0,.65.06h5a3.55,3.55,0,0,0,.73-.08ZM46.27,62.45H32V61.22H46.27ZM15.65,61.22H30v1.23H15.65ZM14.36,29.36A2,2,0,0,1,13,27.1l.53-2.45L30,29.51V34l-14.91-4.4h0ZM28,11.27a16.64,16.64,0,0,1,5.93,0l-2.1,3.38h0L31,16.05l-.87-1.39h0ZM48.46,24.65,49,27.09a1.94,1.94,0,0,1-1.37,2.25L32,34V29.51Zm-1.07,11L32,40.19V36.05l15.49-4.58a2,2,0,0,1,1.64.25A1.94,1.94,0,0,1,50,33.13v0a2,2,0,0,1-1.39,2.12l-1.19.36ZM12,33.11a1.91,1.91,0,0,1,.86-1.38A2,2,0,0,1,14,31.41a1.81,1.81,0,0,1,.56.08L30,36.06V40.2L14.58,35.65h0l-1.19-.35A2,2,0,0,1,12,33.11ZM49,50.62a2,2,0,0,1,.65,1.87A1.93,1.93,0,0,1,48.31,54l-.75.23h0l-10.26,3L32,58.88V54.73l15.25-4.5A1.91,1.91,0,0,1,49,50.62Zm-.31,5.71a.61.61,0,0,1,.17.6l-.35,1.6a.88.88,0,0,1-.85.69H37.87l10.25-3A.64.64,0,0,1,48.73,56.33ZM50.38,45.9A1.93,1.93,0,0,1,49,47.62l-2.34.69h0L32,52.65V48.51l4-1.19L47.88,43.8a2,2,0,0,1,1.79.35,1.88,1.88,0,0,1,.72,1.61Zm-1.31-4.53-1.75.51h0L32,46.42V42.28l16-4.73a2,2,0,0,1,1.7.29,2,2,0,0,1,.81,1.55A2,2,0,0,1,49.07,41.37ZM12.31,37.86a2,2,0,0,1,1.15-.37,2.23,2.23,0,0,1,.56.08l16,4.72v4.14L14.66,41.9h0l-1.74-.52a2,2,0,0,1-1.4-2A1.89,1.89,0,0,1,12.31,37.86Zm0,6.31a2,2,0,0,1,1.79-.35L30,48.51v4.14L15.33,48.33h0L13,47.63a1.93,1.93,0,0,1-1.4-1.71v-.15A1.91,1.91,0,0,1,12.3,44.17Zm.95,12.18a.61.61,0,0,1,.61-.15l10.19,3H14.27a.87.87,0,0,1-.84-.69l-.35-1.6-1,.21,1-.24A.57.57,0,0,1,13.25,56.35Zm2.4,8v-.93H30V65H16.22A.57.57,0,0,1,15.65,64.38ZM45.7,65H32v-1.5H46.27v.93A.58.58,0,0,1,45.7,65Zm12,4H52.35a.55.55,0,0,1-.54-.55v-.61h6.4v.61A.55.55,0,0,1,57.66,68.92ZM56,22.75a83,83,0,0,1,3.74,31.61l-.6,8A1.69,1.69,0,0,1,57.48,64h-5a1.67,1.67,0,0,1-1.59-1.15L50,60.08A2.83,2.83,0,0,0,50.5,59l.36-1.65a2.53,2.53,0,0,0-.52-2.14,4.06,4.06,0,0,0,1.34-2.44,4,4,0,0,0-1.28-3.57,3.92,3.92,0,0,0,2-3.14v-.14a3.84,3.84,0,0,0-1.46-3.27,4.06,4.06,0,0,0,1.54-3.36,3.9,3.9,0,0,0-1.64-3h0A4,4,0,0,0,52,32.92v-.07A3.92,3.92,0,0,0,50.2,30L50.09,30a3.93,3.93,0,0,0,.85-3.31l-.71-3.29a60.85,60.85,0,0,1,2.24-8.29,14.54,14.54,0,0,1,2.64,4.83ZM19,7.09A4.13,4.13,0,0,1,22.2,3L22.61,3A37.3,37.3,0,0,1,39.36,3l.41.09A4.14,4.14,0,0,1,43,7.09V8.32a4.35,4.35,0,0,1-4.34,4.34h-3.2L37.8,8.88A2.75,2.75,0,0,0,38,6.4a2.71,2.71,0,0,0-1.87-1.63,21.12,21.12,0,0,0-10.3,0,2.73,2.73,0,0,0-1.66,4.11l2.34,3.78h-3.2A4.34,4.34,0,0,1,19,8.32ZM6,22.75l.9-2.82A14.54,14.54,0,0,1,9.51,15.1a61.84,61.84,0,0,1,2.24,8.28L11,26.7a3.9,3.9,0,0,0,.85,3.3l-.11.06a4,4,0,0,0-.61,6.17h0a4,4,0,0,0-.1,6.38A3.86,3.86,0,0,0,9.59,45.9h0V46a3.93,3.93,0,0,0,2,3.14,4,4,0,0,0-1.27,3.57v.06a3.89,3.89,0,0,0,1.33,2.38,2.53,2.53,0,0,0-.52,2.14v0l.35,1.6A2.78,2.78,0,0,0,12,60.08l-.9,2.72A1.67,1.67,0,0,1,9.52,64h-5A1.69,1.69,0,0,1,2.83,62.4l-.6-8A83,83,0,0,1,6,22.75ZM9.73,68.82H4.42a.54.54,0,0,1-.54-.54v-.52h6.39v.52A.54.54,0,0,1,9.73,68.82Z"/></g></g></svg>