<svg xmlns="http://www.w3.org/2000/svg" viewBox="0 0 91.46 56.44"><defs><style>.cls-1{fill:#00becc;}</style></defs><title>g-shoe-2Recurso 2</title><g id="Capa_2" data-name="Capa 2"><g id="Capa_1-2" data-name="Capa 1"><path class="cls-1" d="M91.07,43.83a.76.76,0,0,0-.11-.14,3.88,3.88,0,0,0-.76-1.5.79.79,0,0,0-.33-.2,26.32,26.32,0,0,0-2.76-4.39,2.9,2.9,0,0,0-.78-.74,2.28,2.28,0,0,0-1.72-.14,83.32,83.32,0,0,1-17.13-2.64.81.81,0,0,0-.24-.17A81.1,81.1,0,0,1,57.38,29l-.63-.37A3.8,3.8,0,0,0,54.38,28l-.75-.67c-4.41-4-11.06-9.94-16.11-9.09a1,1,0,0,1-.24,0,.35.35,0,0,1,0-.13,2.36,2.36,0,0,1,.57-.35c.17-.09.33-.17.47-.26s.61-.36.92-.53c1.25-.7,2.67-1.49,3.08-3.07S41.75,5.83,39.5,2.36a4.64,4.64,0,0,0-3-2.29c-2.15-.32-4.34.46-7.36,1.53a73.4,73.4,0,0,1-7.39,2.29c-5.11,1.28-8.42,2-13.39,2.85a3.23,3.23,0,0,0-1.87.78,17.66,17.66,0,0,0-2.12,6.74,3.44,3.44,0,0,0,.38,1.29,3.2,3.2,0,0,0-.55.9,17.43,17.43,0,0,0-1.35,6.37l-.07.11a11.22,11.22,0,0,0-1,5.17,1,1,0,0,0,.06.25c-.68,4.32-1.47,9.17-.53,13.82a1.58,1.58,0,0,0-.77.37A1.62,1.62,0,0,0,0,43.74a48.75,48.75,0,0,0,.25,5.92v.63c.15,2.22.28,2.84.66,3.17a2.26,2.26,0,0,0,1.17.46c9.16,1.53,18.56,1.7,27.64,1.87,3.61.07,7.29.18,10.84.3s7.24.23,10.86.3c1.72,0,3.45,0,5.18,0,10.51,0,21.28-.84,30.95-5.54a6.53,6.53,0,0,0,3.65-3.66A4.67,4.67,0,0,0,91.07,43.83Zm-5.13-5.31a25.45,25.45,0,0,1,2.49,3.92A46,46,0,0,1,68.5,46.72c-1.53,0-3.06-.06-4.59-.09a20.28,20.28,0,0,1,1.84-8.22c1,.54,1,1.34.92,2.33A3.15,3.15,0,0,0,66.75,42a1.92,1.92,0,0,0,1.83,1.49,2.22,2.22,0,0,0,.72-.12,4.36,4.36,0,0,0,2.33-2l.12-.2a2.45,2.45,0,0,1,.56-.72,2.2,2.2,0,0,1,.79-.24c1.29-.23,2.64-.35,4-.47a25.74,25.74,0,0,0,7.27-1.36,2,2,0,0,1,1.3-.24A1.66,1.66,0,0,1,85.94,38.52ZM2.81,42.27v-.14c-.92-4.25-.25-8.83.44-13a59,59,0,0,1,11.42,3.76c4.93,2.21,7.17,7.93,7.81,11.43Q12.61,43.48,2.81,42.27ZM5.59,17a1.57,1.57,0,0,1,.29-.52,2.13,2.13,0,0,1,.54-.28l17.9-7.32,4.89-2a21.89,21.89,0,0,0,1.37,9,58.78,58.78,0,0,0-8.83,5.43c-1,.76-2.28,1.7-2.32,3.28a1.93,1.93,0,0,0,.25,1A44.69,44.69,0,0,1,4.34,22.77,16,16,0,0,1,5.59,17ZM32.8,20.76a1.13,1.13,0,0,1,0,.41,1.31,1.31,0,0,1-.56.23A29.19,29.19,0,0,0,26,23.86l-.61.31a17.46,17.46,0,0,1-1.78.9,1,1,0,0,0-.24,0,2.57,2.57,0,0,1-2.2,0,.5.5,0,0,1-.23-.45c0-.85.85-1.47,1.8-2.18a56.94,56.94,0,0,1,10.08-6A41.4,41.4,0,0,1,32.8,20.76Zm-.88-5.48a21,21,0,0,1-1.17-8.89l1.43-.52a11.4,11.4,0,0,1,3.47-.7h.18l.11.19a16.17,16.17,0,0,1,1.81,6.41,2.24,2.24,0,0,1,0,.73,2.35,2.35,0,0,1-1.46,1,39.35,39.35,0,0,0-4.36,1.78ZM24,44.5a20.23,20.23,0,0,0-4.77-10.08A126.88,126.88,0,0,1,36,27.51c2.44-.81,4.38-1.45,6.51-.57A14.86,14.86,0,0,1,47,30.43a19.55,19.55,0,0,0,4,3.37,7.48,7.48,0,0,0,1.44.58h0a26.16,26.16,0,0,1-2,11.82Q37.21,45.66,24,44.5ZM54,35a70.65,70.65,0,0,0,9.74,4.14,21,21,0,0,0-1.39,7.42c-3.47-.08-6.94-.17-10.41-.31A28.08,28.08,0,0,0,54,35Zm13.17,1a.77.77,0,0,0,.2-.48,95.12,95.12,0,0,0,12.87,2.33c-1.08.16-2.2.27-3.34.37-1.34.12-2.72.24-4.08.48a3.46,3.46,0,0,0-1.36.48,3.41,3.41,0,0,0-1,1.17l-.1.16a3,3,0,0,1-1.51,1.38c-.32.1-.5.13-.71-.45a1.94,1.94,0,0,1,0-.76,3.4,3.4,0,0,0-1.72-3.65,6,6,0,0,1,.73-1Zm-10.52-5.8A81.1,81.1,0,0,0,66.1,35a9.85,9.85,0,0,0-1.73,2.77,71.1,71.1,0,0,1-10.18-4.31l-.35-.15a1.72,1.72,0,0,0-.06-.55v-.29a6,6,0,0,1-.13-1.79,1.52,1.52,0,0,1,.65-1.11.75.75,0,0,0,.32-.1,2.61,2.61,0,0,1,1.44.4ZM7.58,8.57a2.11,2.11,0,0,1,1-.35c5-.82,8.36-1.58,13.51-2.88A75.79,75.79,0,0,0,29.55,3c2.81-1,4.84-1.74,6.64-1.46a3.27,3.27,0,0,1,2,1.64c2.16,3.27,2.9,9.42,2.66,10.34s-1.28,1.54-2.37,2.15l-1,.58-.35.19a3.08,3.08,0,0,0-1.08.78,1.8,1.8,0,0,0-.3,1.29,1.37,1.37,0,0,0,.55.92,2.15,2.15,0,0,0,1.42.29c4.36-.74,10.93,5.19,14.87,8.73l.32.29a3.16,3.16,0,0,0-.82,1.76,7.32,7.32,0,0,0,.14,2.24h0a3,3,0,0,1-.48-.23,18.12,18.12,0,0,1-3.7-3.12,16.13,16.13,0,0,0-4.94-3.81c-2.65-1.1-5-.31-7.57.53a127.74,127.74,0,0,0-17.45,7.23,12.34,12.34,0,0,0-2.8-1.76,61,61,0,0,0-12-3.9,9.59,9.59,0,0,1,.58-3.51A46.21,46.21,0,0,0,20,27.1a11.84,11.84,0,0,0,3.14-.31,13.19,13.19,0,0,0,3-1.33l.58-.29a28,28,0,0,1,5.86-2.33A2.25,2.25,0,0,0,34,22a2.19,2.19,0,0,0,.3-1.12,46.25,46.25,0,0,0,0-4.71.68.68,0,0,0-.07-.27c.83-.36,1.68-.7,2.53-1A3.55,3.55,0,0,0,39.12,13a3.2,3.2,0,0,0,.13-1.34,17.57,17.57,0,0,0-2-7A2,2,0,0,0,36.64,4a1.84,1.84,0,0,0-1-.25,11.67,11.67,0,0,0-4,.83c-2.68.92-5.33,2-7.93,3.07L6.08,14.76H6a2,2,0,0,1-.13-.59A18.43,18.43,0,0,1,7.58,8.57Zm-6,35.06a589,589,0,0,0,66.89,4.54,47.35,47.35,0,0,0,20.91-4.55,1.93,1.93,0,0,1,.17,1.18c-.17.89-1.08,1.76-2.62,2.51-11,5.34-23.53,5.57-35.46,5.34-3.61-.07-7.29-.18-10.84-.3s-7.24-.18-10.88-.27c-9-.17-18.38-.34-27.43-1.85a1.16,1.16,0,0,1-.44-.12,1.44,1.44,0,0,1-.13-.62c-.21-1.64-.25-4.32-.26-5.76H.75Zm85.34,5.94c-11,5.33-23.52,5.56-35.46,5.34-3.61-.07-7.29-.18-10.84-.3s-7.2-.24-10.87-.3c-9-.14-18.33-.35-27.38-1.86A1.55,1.55,0,0,1,2,52.37a5.68,5.68,0,0,1-.11-.72h.2c9.15,1.52,18.55,1.74,27.65,1.91,3.61.07,7.29.18,10.84.3s7.24.23,10.86.3c1.72,0,3.45.05,5.18.05,10.51,0,21.28-.84,31-5.54a8.87,8.87,0,0,0,2-1.26A5.85,5.85,0,0,1,87,49.56Z"/><circle class="cls-1" cx="34.77" cy="7.19" r="0.77"/><circle class="cls-1" cx="35.61" cy="11.24" r="0.77"/><circle class="cls-1" cx="37.98" cy="22.08" r="0.77"/><circle class="cls-1" cx="42.59" cy="23.2" r="0.77"/><circle class="cls-1" cx="46.75" cy="25.75" r="0.77"/><circle class="cls-1" cx="50.41" cy="28.8" r="0.77"/><circle class="cls-1" cx="55.71" cy="31.66" r="0.77"/><circle class="cls-1" cx="59.4" cy="33.72" r="0.77"/><circle class="cls-1" cx="63.41" cy="35.39" r="0.77"/></g></g></svg>