<svg xmlns="http://www.w3.org/2000/svg" viewBox="0 0 90 55.87"><defs><style>.cls-1{fill:#00becc;}</style></defs><title>g-shoe-1Recurso 1</title><g id="Capa_2" data-name="Capa 2"><g id="Capa_1-2" data-name="Capa 1"><path class="cls-1" d="M37.07,38.53a2.24,2.24,0,0,1,1.45.67,2.19,2.19,0,0,1,.64,1.56v0h0a2.23,2.23,0,0,1-.68,1.55,2.25,2.25,0,0,1-1.56.64h-.05a2.18,2.18,0,0,1-1.55-.68,2.23,2.23,0,0,1-.64-1.56v0h0a2.25,2.25,0,0,1,2.24-2.19h.15Z"/><path class="cls-1" d="M28.67,38a2.3,2.3,0,0,1,1.45.66,2.27,2.27,0,0,1,.63,1.57v0h0a2.24,2.24,0,0,1-2.23,2.19h-.06a2.29,2.29,0,0,1-1.55-.68,2.24,2.24,0,0,1-.63-1.56v-.09A2.27,2.27,0,0,1,27,38.6,2.24,2.24,0,0,1,28.51,38h.16Z"/><path class="cls-1" d="M35.78,21.87a2.24,2.24,0,0,1-1.59,3.82A2.21,2.21,0,0,1,32.61,25,2.24,2.24,0,0,1,32,23.45a2.21,2.21,0,0,1,.66-1.58,2.25,2.25,0,0,1,1.58-.65A2.27,2.27,0,0,1,35.78,21.87Z"/><path class="cls-1" d="M31,14.82a2.28,2.28,0,0,1,.66,1.59A2.23,2.23,0,0,1,27.8,18a2.21,2.21,0,0,1-.66-1.58A2.24,2.24,0,0,1,31,14.82Z"/><path class="cls-1" d="M25.13,25.72a1.11,1.11,0,0,1-.28,1.12L23,28.63l.43,2.53A1.1,1.1,0,0,1,23,32.23a1.08,1.08,0,0,1-1.16.08l-2.27-1.19-2.27,1.19a1.09,1.09,0,0,1-1.59-1.15l.43-2.53-1.84-1.79A1.11,1.11,0,0,1,14,25.72a1.08,1.08,0,0,1,.88-.75l2.54-.37,1.14-2.3a1.09,1.09,0,0,1,1-.61,1.12,1.12,0,0,1,1,.61l1.13,2.3,2.54.37A1.11,1.11,0,0,1,25.13,25.72Zm-4.07,1.74.66-.64-.91-.13a1.1,1.1,0,0,1-.82-.6l-.41-.82-.4.82a1.1,1.1,0,0,1-.83.6l-.91.13.66.64a1.07,1.07,0,0,1,.31,1l-.15.91.81-.43a1.08,1.08,0,0,1,1,0l.82.43-.16-.91A1.12,1.12,0,0,1,21.06,27.46Z"/><path class="cls-1" d="M19.58,18.14a9.17,9.17,0,1,1-9.17,9.17A9.17,9.17,0,0,1,19.58,18.14Zm7,9.17a7,7,0,1,0-2,4.93A6.93,6.93,0,0,0,26.56,27.31Z"/><path class="cls-1" d="M40.68,21.79,33.1,3a1.36,1.36,0,0,0-.49-.61,1.37,1.37,0,0,0-.73-.21,1.36,1.36,0,0,0-.74.22A6.38,6.38,0,0,0,28.35,7.7v0h0V9a8.44,8.44,0,0,1,6.31,3.85l4.14,6.5A18.27,18.27,0,0,0,40.68,21.79ZM56,32.86l-5.2-2.37-1.09,1.83A2.21,2.21,0,0,1,50,33.43a2.22,2.22,0,0,1-2.24,2.24A2.25,2.25,0,0,1,46.14,35a2.28,2.28,0,0,1-.66-1.59,2.25,2.25,0,0,1,2.24-2.24h.06l1-1.63-2.91-1.33a18.41,18.41,0,0,1-2.19-1.17l-.95,1.2a2.25,2.25,0,0,1-2.07,3.1,2.24,2.24,0,0,1,0-4.48,2.07,2.07,0,0,1,.35,0l.86-1.09A20.72,20.72,0,0,1,37,20.5L32.81,14a6.21,6.21,0,0,0-5.24-2.87,6,6,0,0,0-1.56.2L20.35,12.8a12.66,12.66,0,0,1-3.18.4A12.08,12.08,0,0,1,15.09,13L9,12a1.46,1.46,0,0,0-.29,0A1.78,1.78,0,0,0,7,13.77a.76.76,0,0,0,0,.15l.63,7.61c0,.6.07,1.2.07,1.81a22.09,22.09,0,0,1-2.38,10,19.94,19.94,0,0,0-2.15,9v.82l50.13,2.4c.56,0,1.12,0,1.68,0a35.66,35.66,0,0,0,7.63-.83l5.22-1.16a11.2,11.2,0,0,1-.07-1.3,13,13,0,0,1,.56-3.76l.19-.62a23.22,23.22,0,0,1-3.07-.84l-.59,1.44a2.15,2.15,0,0,1,.49,1.4,2.2,2.2,0,0,1-.65,1.58,2.23,2.23,0,0,1-3.17,0,2.2,2.2,0,0,1-.65-1.58,2.23,2.23,0,0,1,.65-1.59,2.28,2.28,0,0,1,1.3-.63l.58-1.43a.2.2,0,0,0-.08,0L58,33.77l-.83,1.69a2.23,2.23,0,0,1,.4,1.27,2.23,2.23,0,0,1-3.82,1.58,2.22,2.22,0,0,1,0-3.16,2.19,2.19,0,0,1,1.45-.65ZM51.89,28.6l5,2.3.07-.14a1.11,1.11,0,0,1,1.47-.51,1.09,1.09,0,0,1,.5,1.47l0,.09,5.27,2.4,0-.05a1.1,1.1,0,1,1,2,.83v0A23.06,23.06,0,0,0,70,36h.1a21.78,21.78,0,0,0,3.24.24h4.36a18.55,18.55,0,0,1,4,.41,10.91,10.91,0,0,1,3.66,1.51,7.8,7.8,0,0,1,1.54,1.34h0a2.69,2.69,0,0,1,1.54.61,2.65,2.65,0,0,1,.94,1.58l.58,3.07a4.62,4.62,0,0,1,.07.73,3.9,3.9,0,0,1-2.92,3.78L67.85,54.29a48,48,0,0,1-12.22,1.58c-.48,0-1,0-1.43,0L4.1,54.36A3.91,3.91,0,0,1,.31,50.71L0,46a1,1,0,0,1,0-.17,2.69,2.69,0,0,1,.78-1.9l.16-.15V42.31a22.1,22.1,0,0,1,2.39-10,20,20,0,0,0,2.14-9c0-.54,0-1.09-.06-1.63L4.78,14.1c0-.11,0-.22,0-.33a4,4,0,0,1,4-4,4.87,4.87,0,0,1,.65,0l6.07,1a11,11,0,0,0,1.72.13,10.65,10.65,0,0,0,2.63-.33L25.46,9.2c.23,0,.46-.11.7-.14V7.7A8.56,8.56,0,0,1,29.91.61L30,.54l0,0a3.49,3.49,0,0,1,3.76.06A3.43,3.43,0,0,1,35.13,2.2l8.64,21.38a1.1,1.1,0,0,1,1.3,1.69l0,.06a16,16,0,0,0,1.74.91l3.13,1.44.15-.26a1.09,1.09,0,0,1,1.5-.38,1.1,1.1,0,0,1,.38,1.51ZM87.81,45.45a1.87,1.87,0,0,0,0-.32l-.58-3.08a.43.43,0,0,0-.17-.28.45.45,0,0,0-.31-.11h-.18l-23.48,5.2a37.36,37.36,0,0,1-8.1.88c-.59,0-1.19,0-1.79,0L2.71,45.31h0a.46.46,0,0,0-.34.14.5.5,0,0,0-.14.35v0l.3,4.73a1.72,1.72,0,0,0,1.66,1.61l50.1,1.49,1.37,0a45.94,45.94,0,0,0,11.66-1.51l19.23-5.06a1.65,1.65,0,0,0,.93-.62A1.72,1.72,0,0,0,87.81,45.45ZM70,43.1,84.14,40l0,0a7.43,7.43,0,0,0-1.86-.88,14.37,14.37,0,0,0-4.56-.66H73.33a23.32,23.32,0,0,1-2.66-.15l-.28.91a10.73,10.73,0,0,0-.47,3.12A7.38,7.38,0,0,0,70,43.1Z"/></g></g></svg>