<svg xmlns="http://www.w3.org/2000/svg" viewBox="0 0 90.62 39.62"><defs><style>.cls-1{fill:#00becc;}</style></defs><title>g-shoe-3Recurso 3</title><g id="Capa_2" data-name="Capa 2"><g id="Capa_1-2" data-name="Capa 1"><path class="cls-1" d="M81.24,24.63a.5.5,0,0,1-.19-1,.51.51,0,0,1,.66.26.52.52,0,0,1-.27.66A.48.48,0,0,1,81.24,24.63Zm-.4-2.94A.5.5,0,0,0,81,21a.49.49,0,0,0-.69-.13.5.5,0,0,0-.13.7.49.49,0,0,0,.41.22.52.52,0,0,0,.29-.09Zm2.2,2a.43.43,0,0,0,.25-.07.5.5,0,0,0,.19-.69.5.5,0,0,0-.87.51A.5.5,0,0,0,83,23.73Zm1.69-1.11a.46.46,0,0,0,.29-.1.5.5,0,0,0,.11-.7.52.52,0,0,0-.71-.11.51.51,0,0,0,.31.91Zm-22,5.13a.3.3,0,0,0,.27-.18l.33-.79a.29.29,0,0,0-.15-.38.29.29,0,0,0-.38.15l-.33.8a.27.27,0,0,0,.15.37A.23.23,0,0,0,62.77,27.75ZM64.23,24a.2.2,0,0,0,.11,0,.28.28,0,0,0,.26-.18l.34-.8a.29.29,0,0,0-.53-.22l-.34.8A.28.28,0,0,0,64.23,24Zm-.79,1.86a.25.25,0,0,0,.12,0,.28.28,0,0,0,.26-.17l.34-.8a.29.29,0,0,0-.16-.38.28.28,0,0,0-.37.16l-.34.79A.29.29,0,0,0,63.44,25.87ZM45.06,23.43a.48.48,0,0,0,.25.09.48.48,0,0,0,.45-.2.5.5,0,0,0-.1-.7.5.5,0,1,0-.6.81Zm-1.71,2.31a.52.52,0,0,0,.26.1.48.48,0,0,0,.45-.2.51.51,0,1,0-.82-.6A.51.51,0,0,0,43.35,25.74Zm5.12-6.95a.49.49,0,0,0,.25.1.51.51,0,0,0,.45-.21.5.5,0,1,0-.7.11Zm-1.71,2.32a.43.43,0,0,0,.26.09.48.48,0,0,0,.45-.2.5.5,0,0,0-.81-.6A.51.51,0,0,0,46.76,21.11Zm-5.11,7a.49.49,0,0,0,.25.1.53.53,0,0,0,.45-.2.5.5,0,1,0-.7.1Zm-16.34-9.4a.22.22,0,0,0,.11,0l.8-.35a.28.28,0,0,0,.14-.38.29.29,0,0,0-.38-.15l-.79.35a.29.29,0,0,0,.12.55Zm-1.87.76a.16.16,0,0,0,.1,0c.28-.1.55-.21.81-.32a.28.28,0,0,0,.16-.37.28.28,0,0,0-.37-.16l-.8.32a.28.28,0,0,0-.17.37A.3.3,0,0,0,23.44,19.42Zm-1.89.69h.09l.82-.29a.28.28,0,0,0,.17-.37.28.28,0,0,0-.37-.17l-.81.28a.29.29,0,0,0-.18.37A.3.3,0,0,0,21.55,20.11Zm-1.92.62.08,0,.83-.25a.29.29,0,1,0-.17-.55l-.82.25a.29.29,0,0,0-.2.36A.29.29,0,0,0,19.63,20.73Zm7.51-2.9a.27.27,0,0,0,.13,0l.78-.38a.29.29,0,0,0,.13-.39.28.28,0,0,0-.38-.13l-.78.38a.29.29,0,0,0-.14.38A.3.3,0,0,0,27.14,17.83ZM15.72,21.71h.06l.85-.19a.29.29,0,0,0,.22-.34A.29.29,0,0,0,16.5,21l-.84.18a.29.29,0,0,0-.22.34A.29.29,0,0,0,15.72,21.71Zm2-.45h.07L18.6,21a.29.29,0,0,0,.2-.35.28.28,0,0,0-.35-.2l-.84.21a.29.29,0,0,0,.08.57ZM32.47,15a.3.3,0,0,0,.15-.05l.73-.45a.28.28,0,0,0,.09-.4.27.27,0,0,0-.39-.09l-.73.45a.29.29,0,0,0-.1.4A.29.29,0,0,0,32.47,15Zm1.7-1.09a.32.32,0,0,0,.16,0l.72-.49a.29.29,0,0,0-.33-.48l-.71.49a.28.28,0,0,0-.08.39A.27.27,0,0,0,34.17,13.88ZM31.59,4.69a.23.23,0,0,0,.11,0A.28.28,0,0,0,32,4.54c.11-.26.23-.54.37-.84a.28.28,0,0,0-.14-.38.28.28,0,0,0-.38.14c-.14.3-.27.59-.38.85A.29.29,0,0,0,31.59,4.69Zm-.45,2.1h0a.29.29,0,0,0,.29-.27,5,5,0,0,1,.13-.86A.28.28,0,1,0,31,5.52a5.58,5.58,0,0,0-.16,1A.3.3,0,0,0,31.14,6.79ZM29,16.94a.28.28,0,0,0,.13,0l.77-.41a.29.29,0,0,0,.12-.39.28.28,0,0,0-.39-.11l-.76.4a.27.27,0,0,0-.12.38A.28.28,0,0,0,29,16.94Zm1.78-1,.14,0,.75-.43a.29.29,0,0,0,.11-.4.3.3,0,0,0-.4-.1l-.74.43a.28.28,0,0,0-.11.39A.29.29,0,0,0,30.73,16Zm59.7,14.24v.07c-.08.56-.29,1.9-2.44,3.31s-6.33,2.8-12,3.85c-10.56,2-28.7,2.17-41.11,2.17H26.13A206.24,206.24,0,0,1,3.19,38.42c-2.9-.5-2.9-3-2.9-4.79V29.49a1.05,1.05,0,0,1,.19-.61A39.15,39.15,0,0,1,.66,15.57c1.1-6.05,1.83-7.86,3.24-8.1.53-.09,1.32.06,2,1.29a3.88,3.88,0,0,1,.2.44c2.36,6,8.14,5.31,10,5.08,6.33-.74,9.08-1.73,11.78-3.19a7.25,7.25,0,0,1-1-6.83A12.49,12.49,0,0,1,29,.4,1.08,1.08,0,0,1,30.29.09l9.53,4.16a1.1,1.1,0,0,1,.48-.8,1.09,1.09,0,0,1,1.5.31l1.25,1.9,3.51,1.53,1.84.63a1.08,1.08,0,0,1,2.14-.13l.17.92,2.14.73a1.06,1.06,0,0,1,.89-1.18A1.07,1.07,0,0,1,55,9.05l.18,1.09,2.18.75a1.08,1.08,0,0,1,2.14-.28l.2,1.09,2.11.73a1.07,1.07,0,0,1,2.13-.11l.16.91,2.14.74a1.08,1.08,0,0,1,2.15-.18l.17,1,2.13.76a1.09,1.09,0,0,1,.86-.93,1.08,1.08,0,0,1,1.27.85l.2,1a16,16,0,0,1,1.59.74l.23,0c6.88.79,11.27,2,13.08,3.36C90.3,22.45,91,26.85,90.43,30.22ZM78,19.83a13.66,13.66,0,0,1,2.93,6.24c3.8-1,5.62-2.05,6.49-2.79a3.49,3.49,0,0,0-.84-1C85.42,21.38,82.37,20.52,78,19.83ZM35,9.31l-.18.13a23.79,23.79,0,0,0,3.09,1.24c3.56,1.17,11.38,3.61,18.94,6,6.23,1.95,12.11,3.78,14.57,4.59,1.94.63,3.21,1.21,4.19,2.65A.29.29,0,0,1,76,23.7l.83.26a.28.28,0,0,1,.19.36.29.29,0,0,1-.28.2h-.08l-.77-.24A12.48,12.48,0,0,1,77,27l1.86-.4c-.12-.55-.26-1.06-.41-1.54l-.69-.21a.29.29,0,1,1,.17-.55l.28.09A9.34,9.34,0,0,0,73.39,19a1.06,1.06,0,0,1-.83.77.75.75,0,0,1-.21,0,1.09,1.09,0,0,1-1.06-.86L71.11,18l0,0-.3-.11c-.22-.09-.87-.33-1.81-.66l0,.16a1.08,1.08,0,0,1-.89,1.24l-.18,0a1.07,1.07,0,0,1-1.06-.9l-.23-1.34-2.12-.74.09.56a1.08,1.08,0,0,1-.88,1.25h-.18a1.07,1.07,0,0,1-1.06-.89l-.3-1.74-2-.71.1.51a1.08,1.08,0,0,1-.87,1.25.68.68,0,0,1-.2,0A1.08,1.08,0,0,1,58.1,15l-.31-1.71-2.23-.77.09.56a1.07,1.07,0,0,1-.89,1.24l-.18,0a1.09,1.09,0,0,1-1.06-.91l-.28-1.71-2.08-.71.11.59a1.09,1.09,0,0,1-.87,1.26l-.2,0A1.08,1.08,0,0,1,49.14,12l-.33-1.8-2.26-.77a1.18,1.18,0,0,1-.37-.09l-.39-.17L45.28,9l.66,1A1.08,1.08,0,0,1,45,11.7a1.1,1.1,0,0,1-.91-.48L42.07,8.09C38.12,7.14,37,7.93,35,9.31ZM62.59,28.63l0,.09A122.49,122.49,0,0,0,74.83,27.4c-.94-3.09-1.93-3.42-4.07-4.12-1.12-.37-3-1-5.21-1.66l-.16.38a.29.29,0,0,1-.27.18l-.11,0a.29.29,0,0,1-.15-.38l.14-.33-.24-.08-5.69-1.78-7,9.6,3-.09,5.2-.24,1.68-.1.15-.35a.28.28,0,0,1,.38-.15A.29.29,0,0,1,62.59,28.63ZM48,16.12,38.23,29.4h2.41l2.88,0,8.75-11.9ZM29.81,10l.37-.21c.51-.31,1-.62,1.62-.95l.07-.05H31.8a.3.3,0,0,1-.23-.11,3.2,3.2,0,0,1-.5-.87.29.29,0,0,1,.53-.21,3.19,3.19,0,0,0,.42.73.28.28,0,0,1,0,.37c.67-.39,1.23-.79,1.78-1.17a9.75,9.75,0,0,1,3.87-1.88L30.22,2.42C29.3,3.83,27.54,7.23,29.81,10ZM2.7,16.39a54.89,54.89,0,0,0,6.53.3,8,8,0,0,0,2.43-.35A10,10,0,0,1,7,14.23a10,10,0,0,1-2.86-4.08A35.92,35.92,0,0,0,2.78,16C2.75,16.11,2.73,16.25,2.7,16.39Zm-.33,2.45,1.93.36c3.88.75,7.07,1.49,9.72,2.25l.51-.09a.29.29,0,0,1,.34.23.2.2,0,0,1,0,.11,38.17,38.17,0,0,1,5.35,2,11.27,11.27,0,0,1,5,4.14l.34.6q.23.45.42.93h3.86L41.28,14l-4-1.28-.9-.31-.35.26a.33.33,0,0,1-.16.05.29.29,0,0,1-.18-.52l.05,0a17,17,0,0,1-2.92-1.42l-1.5.88c-3.84,2.28-6.38,3.79-14.89,4.79l-.93.08a8.61,8.61,0,0,1-6.23,2.34,58.23,58.23,0,0,1-6.83-.32ZM88.2,25.4c-2.27,1.58-6.3,2.89-12.22,4-10.56,2-28.7,2.17-41.11,2.17H26.13A205.73,205.73,0,0,1,3.24,30.37l-.79-.07v3.33c0,2.12.16,2.5,1.11,2.66a200.22,200.22,0,0,0,22.57,1.16h3.53c11.86,0,34,.1,45.92-2.12C83.47,33.86,88,32,88.29,30v-.09A12.23,12.23,0,0,0,88.2,25.4Zm-30.77.07a.52.52,0,0,0-.71.11.51.51,0,0,0,.11.71.58.58,0,0,0,.25.09.47.47,0,0,0,.45-.2A.51.51,0,0,0,57.43,25.47Zm-1.71,2.32a.5.5,0,0,0-.6.81.52.52,0,0,0,.26.1.51.51,0,0,0,.45-.2A.52.52,0,0,0,55.72,27.79Zm5.12-6.95a.51.51,0,0,0-.71.1.52.52,0,0,0,.11.71.53.53,0,0,0,.25.1.5.5,0,0,0,.45-.21A.5.5,0,0,0,60.84,20.84Zm-1.71,2.32a.5.5,0,0,0-.7.1.51.51,0,0,0,.1.71.62.62,0,0,0,.26.09.48.48,0,0,0,.45-.2A.5.5,0,0,0,59.13,23.16Z"/></g></g></svg>