<svg xmlns="http://www.w3.org/2000/svg" viewBox="0 0 79.12 89.09"><defs><style>.cls-1{fill:#00becc;}</style></defs><title>m-dress-1Recurso 1</title><g id="Capa_2" data-name="Capa 2"><g id="Capa_1-2" data-name="Capa 1"><path class="cls-1" d="M57.46,46.59c1.67-3.32,7.32-15.09,7.71-23.18L67.66,2A1.71,1.71,0,0,0,67.22.59,1.68,1.68,0,0,0,65.9,0l-6,.1a1.77,1.77,0,0,0-1.57,1.06L52,16a22,22,0,0,0-3.44-.29c-3.79,0-6.81,1.1-8.85,3.21a15,15,0,0,0-9.77-3.66,11.14,11.14,0,0,0-3,.4L21.86,1.25A1.75,1.75,0,0,0,20.24.08L14,0a1.75,1.75,0,0,0-1.76,1.85l1.39,21.51c.37,8.09,6,19.9,7.71,23.23L.26,81a1.71,1.71,0,0,0-.14,1.54,1.76,1.76,0,0,0,1.14,1l13.06,3.7h0l.12,0,.07,0h.53l.08,0,11.73-2.53L39,89h0L39,89l.08,0,.07,0h.34l.23,0h0L40,89,51.7,85.43l13.2,2.44h.46l.11,0h.08l.12,0h0l12.16-3.61a1.72,1.72,0,0,0,1.13-1,1.76,1.76,0,0,0-.14-1.53ZM17.12,23.16,15.85,3.5l3.13,0,5.26,15a1.73,1.73,0,0,0,2.53.91,6.47,6.47,0,0,1,3.17-.71c3.36,0,6.91,1.64,8.43,3.89a1.72,1.72,0,0,0,1.5.76,1.76,1.76,0,0,0,1.45-.86c1.28-2.22,3.71-3.34,7.23-3.34a17.62,17.62,0,0,1,4,.48,1.75,1.75,0,0,0,2.06-1L61.11,3.58,64,3.53,61.7,23.07a.49.49,0,0,1,0,.12C61.37,30.44,56,41.65,54.4,44.92h-30c-1.64-3.27-7-14.48-7.3-21.73Zm49,60.91L59,69.37a1.74,1.74,0,1,0-3.13,1.53l6.32,12.92L51.92,81.93a1.79,1.79,0,0,0-.83,0L41.3,85l.25-13.7a1.74,1.74,0,0,0-1.71-1.77h0a1.75,1.75,0,0,0-1.74,1.71l-.24,13.7L27.57,81.37a1.56,1.56,0,0,0-.57-.1,1.47,1.47,0,0,0-.36,0L17.88,83.2l5.88-12.36a1.74,1.74,0,0,0-3.15-1.49L13.85,83.57,4.42,80.9,24.33,48.4H54.49L74.72,81.52Z"/></g></g></svg>