<svg xmlns="http://www.w3.org/2000/svg" viewBox="0 0 74.19 76.98"><defs><style>.cls-1{fill:#00becc;}</style></defs><title>m-jacket-1Recurso 1</title><g id="Capa_2" data-name="Capa 2"><g id="Capa_1-2" data-name="Capa 1"><path class="cls-1" d="M26.54,13.81a11.4,11.4,0,0,0,21.11,0L48.8,11a4.29,4.29,0,0,0-3.12-5.82,42.79,42.79,0,0,0-17.17,0A4.3,4.3,0,0,0,25.39,11Zm1.19-5.29A1.88,1.88,0,0,1,29,7.57a41,41,0,0,1,16.21,0,1.88,1.88,0,0,1,1.26.95,1.84,1.84,0,0,1,.08,1.57L45.4,12.9a9,9,0,0,1-16.61,0l-1.14-2.81A1.84,1.84,0,0,1,27.73,8.52Z"/><path class="cls-1" d="M1.42,73.25A2.88,2.88,0,0,0,4.3,76.13h6.2a2.89,2.89,0,0,0,2.89-2.88V68.5A5.89,5.89,0,0,0,14.53,65,48.49,48.49,0,0,1,17.1,49.4l1.54-4.57L17.35,73.57A3.26,3.26,0,0,0,20.62,77h33a3.28,3.28,0,0,0,3.27-3.41l-1.3-28.74,2.11,6.24a37.71,37.71,0,0,1,2,11.63l0,2.38a5.76,5.76,0,0,0,1.43,3.77v4.4A2.88,2.88,0,0,0,64,76.13h6.2a2.88,2.88,0,0,0,2.88-2.88V68.5a5.74,5.74,0,0,0,1.14-3.42V61.83a51.3,51.3,0,0,0-1.2-11L68,28.32c-.08-.53-.18-1.05-.29-1.56A25.12,25.12,0,0,0,53.83,9.3.2.2,0,0,1,53.75,9a5.73,5.73,0,0,0-4.17-7.77,62.49,62.49,0,0,0-25,0A5.72,5.72,0,0,0,20.45,9a.22.22,0,0,1-.08.27A25.11,25.11,0,0,0,6.46,26.76c-.11.51-.2,1-.27,1.48L1.05,51.49a44.51,44.51,0,0,0-1,9.62v4a5.77,5.77,0,0,0,1.42,3.76Zm9.08.45H4.3a.45.45,0,0,1-.45-.45V70.53a5.65,5.65,0,0,0,2,.37H8.71A5.78,5.78,0,0,0,11,70.45v2.8A.45.45,0,0,1,10.5,73.7Zm59.67,0H64a.45.45,0,0,1-.45-.45V70.53a5.61,5.61,0,0,0,2,.37h2.88a5.79,5.79,0,0,0,2.25-.45v2.8A.45.45,0,0,1,70.17,73.7ZM2.43,61.11a42.13,42.13,0,0,1,1-9.09L8.58,28.69c.07-.48.16-1,.26-1.43A22.69,22.69,0,0,1,21.42,11.5,2.65,2.65,0,0,0,22.7,8.11a3.29,3.29,0,0,1,2.39-4.46,59.92,59.92,0,0,1,24,0,3.28,3.28,0,0,1,2.39,4.46,2.66,2.66,0,0,0,1.28,3.39A22.67,22.67,0,0,1,65.35,27.26c.1.47.19.95.28,1.5l5,22.55a49,49,0,0,1,1.15,10.52v3.25a3.39,3.39,0,0,1-3.39,3.39H65.49a3.4,3.4,0,0,1-3.39-3.41l0-2.38A39.88,39.88,0,0,0,60,50.29L55.1,35.9a1.22,1.22,0,0,0-2.37.44l1.68,37.34a.82.82,0,0,1-.23.61.81.81,0,0,1-.6.26H37.84V26.64a15.89,15.89,0,0,0,10.55-5.08V36.82a.61.61,0,0,0,1.22,0V20.18a18.22,18.22,0,0,0,1.78-2.56,1.22,1.22,0,0,0-2.14-1.16c0,.08-4.31,7.78-12.15,7.78s-11.82-7.67-11.86-7.75a1.22,1.22,0,0,0-2.17,1.11,19,19,0,0,0,1.85,2.76V36.82a.61.61,0,0,0,.61.61.61.61,0,0,0,.61-.61V21.74a15.16,15.16,0,0,0,10.49,4.91v47.9h-16a.84.84,0,0,1-.84-.87l1.68-37.34a1.21,1.21,0,0,0-1-1.25l-.23,0a1.21,1.21,0,0,0-1.15.83l-4.3,12.72A51.16,51.16,0,0,0,12.1,65.08a3.39,3.39,0,0,1-3.39,3.39H5.82a3.39,3.39,0,0,1-3.39-3.39Z"/><path class="cls-1" d="M23.17,70a.59.59,0,0,0,.47-.22l.89-1.07a13.2,13.2,0,0,0,3-8.42V56.62A.61.61,0,0,0,27,56a.6.6,0,0,0-.61.6V60.3a12,12,0,0,1-2.76,7.64L22.71,69a.61.61,0,0,0,.08.86A.62.62,0,0,0,23.17,70Z"/><path class="cls-1" d="M48.12,60.3V56.62a.61.61,0,0,0-1.21,0V60.3a13.2,13.2,0,0,0,3,8.42l.89,1.07a.59.59,0,0,0,.47.22.67.67,0,0,0,.39-.14.62.62,0,0,0,.08-.86l-.89-1.07A12,12,0,0,1,48.12,60.3Z"/></g></g></svg>