<svg xmlns="http://www.w3.org/2000/svg" viewBox="0 0 51.57 47.11"><defs><style>.cls-1{fill:#00becc;}</style></defs><title>m-purse-1Recurso 1</title><g id="Capa_2" data-name="Capa 2"><g id="Capa_1-2" data-name="Capa 1"><path class="cls-1" d="M50,43.9,44.27,13a1.19,1.19,0,0,0-.08-.2l0-.1a1,1,0,0,0-.24-.29h0a.87.87,0,0,0-.3-.16l-.18,0-.14,0H33.93V6.87A6.88,6.88,0,0,0,27.06,0H22.94a6.88,6.88,0,0,0-6.87,6.87v5.31H6.72l-.13,0a.85.85,0,0,0-.22,0,1.11,1.11,0,0,0-.3.17l0,0a.54.54,0,0,0-.09.12l-.12.15a1.07,1.07,0,0,0-.07.19s0,.07,0,.11L.05,43.9a2.71,2.71,0,0,0,2.68,3.21H47.27A2.71,2.71,0,0,0,50,43.9Zm-31.88-37A4.87,4.87,0,0,1,22.94,2h4.12a4.87,4.87,0,0,1,4.87,4.87v5.31H18.07ZM28.64,22.33a8.64,8.64,0,0,0-3-4.53,1,1,0,0,0-1.19,0,8.71,8.71,0,0,0-3,4.45c-5.19-1.7-9.91-5.76-12.29-8.07H41C38.61,16.61,33.75,21,28.64,22.33ZM25,19.94a5.49,5.49,0,0,1,1.78,3.62A7.18,7.18,0,0,1,25,27.65a7.25,7.25,0,0,1-1.77-4.09A5.46,5.46,0,0,1,25,19.94ZM47.83,44.85a.7.7,0,0,1-.56.26H2.73A.73.73,0,0,1,2,44.26l5.33-29c2.45,2.44,7.84,7.22,13.94,9a10.94,10.94,0,0,0,3,5.56,1,1,0,0,0,.7.28,1,1,0,0,0,.69-.28,10.9,10.9,0,0,0,3-5.5c6-1.36,11.48-6.44,13.95-9L48,44.26A.71.71,0,0,1,47.83,44.85Z"/><path class="cls-1" d="M42.09,33.46a23.11,23.11,0,0,0-7.66,1.1H29.35a22.85,22.85,0,0,0-7.61-1.13c-5.22,0-9.46,1.21-9.46,2.53,0,.39.38-.19,1,1.33h1.74q0,.42,0,.84a8.06,8.06,0,0,0,8,8.09h0a8,8,0,0,0,8.15-7.82v-.16a6.35,6.35,0,0,0-.09-1.07H32.6a7.45,7.45,0,0,0-.07.95,8.15,8.15,0,0,0,16.29,0c0-.25,0-.49,0-.74h1.86c.57-1.54.89-.89.89-1.25C51.55,34.76,47.31,33.46,42.09,33.46Zm-18.64,11a.66.66,0,0,1-.94,0h0L16.37,38.3a.67.67,0,0,1,.89-.93l6.11,6.11a.66.66,0,0,1,.06.94h0Zm18.64,0a.66.66,0,0,1-.94,0h0L35,38.32a.66.66,0,0,1,.21-.92.68.68,0,0,1,.65,0L42,43.48a.66.66,0,0,1,.06.94h0Z"/></g></g></svg>