<svg xmlns="http://www.w3.org/2000/svg" viewBox="0 0 60 28.99"><defs><style>.cls-1{fill:#b2b2b2;}</style></defs><title>m-shoe-2Recurso 2</title><g id="Capa_2" data-name="Capa 2"><g id="Capa_1-2" data-name="Capa 1"><path class="cls-1" d="M60,23c0-5-2.91-7.31-8.29-8.39l-1.53-.28-.74-.11-.71-.11C48,14,47.46,13.89,47,13.79a11.65,11.65,0,0,1-2.68-1.21l-.73-.42-.13-.08-.67-.4-.37-.23-.54-.33L41.76,11a3,3,0,0,0-4.88-3.29h0l-1.44-1a3,3,0,0,0-4.55-3.87l-.31.31c-1.28-1-2.49-1.87-3.53-2.67a2.46,2.46,0,0,0-3.23.21L21.75,2.77a2.58,2.58,0,0,0,0,3.64l.56.56a.39.39,0,0,1,.12.35.38.38,0,0,1-.21.28h0a15.08,15.08,0,0,1-1.46.55h0A9.54,9.54,0,0,1,11,6.41,10.94,10.94,0,0,1,9.47,4.79,6.63,6.63,0,0,1,9,4.1a1,1,0,0,0-.69-.49c-2.39-.43-3.89,3.13-5.49,10-.48,2-.92,4.21-1.3,6.38-.14.76-.26,1.47-.36,2.1,0,.33-.08.56-.11.72l-1,2.87a1.06,1.06,0,0,0,0,.68,3.32,3.32,0,0,0,1.83,1.58A18.21,18.21,0,0,0,9.14,29H53a8.67,8.67,0,0,0,1.12-.14,10.46,10.46,0,0,0,2.29-.71A5.42,5.42,0,0,0,60,23ZM19.07,15c1.41-.09,2.14-1.76,2.84-5.12.36-.13.72-.27,1.09-.43h0a2.36,2.36,0,0,0,1.42-2.31,2.43,2.43,0,0,0-.7-1.58L23.17,5a.56.56,0,0,1-.17-.4.58.58,0,0,1,.17-.4l2-2.05a.45.45,0,0,1,.6-.05c1,.76,2.12,1.62,3.32,2.52L28.76,5a2,2,0,0,0-.19.24A2.75,2.75,0,0,0,28.1,6a.64.64,0,0,0,0,.07,4.42,4.42,0,0,0-.15.48h0c0,.08,0,.16,0,.25s0,.21,0,.33a2.78,2.78,0,0,0,.11.75A2.93,2.93,0,0,0,28.58,9c.06.07.11.15.18.22a2.89,2.89,0,0,0,.47.38l.2.11.32.17.15,0a3,3,0,0,0,3.1-.7l.78-.78L34,8.2l1.4,1,0,0-.66.66a3,3,0,0,0-.83,1.55A3,3,0,0,0,39,14.12l1.5-1.51c.72.46,1.38.87,2,1.23-.68,1.23-1.27,2.22-1.77,3a7.94,7.94,0,0,1-.8,1.06l-.15.15a49.34,49.34,0,0,0-15.21,4H8.09C9.59,18.77,14.86,15.27,19.07,15Zm29.35,1.08.71.11.73.12,1.46.26c4.14.83,6.27,2.3,6.63,5.43H30.15a48.23,48.23,0,0,1,9.92-2c1.11-.07,2.25-1.67,4.17-5.18a10.32,10.32,0,0,0,2.34.93C47.08,15.85,47.61,15.94,48.42,16.07Zm-8.71-6.9a1,1,0,0,1,0,1.41l-.05.05h0l-1.83,1.83-.24.24a1,1,0,0,1-1.42-1.41l.4-.4,1.12-1.12h0l.6-.59A1,1,0,0,1,39.71,9.17Zm-6-4.88a1,1,0,0,1,0,1.41l-.49.48h0l-1,1-.66.66a1,1,0,0,1-1.42,0,.94.94,0,0,1-.25-.52.58.58,0,0,1,0-.18,1,1,0,0,1,.29-.71l2.12-2.12A1,1,0,0,1,33.71,4.29Zm-30.23,16c.37-2.14.8-4.28,1.27-6.28,1-4.4,2.25-7.55,2.92-8.28a12.54,12.54,0,0,0,2,2.19,11.28,11.28,0,0,0,10,2.56,15.46,15.46,0,0,1-.52,1.75,3.15,3.15,0,0,1-.4.76s0,0,0,0C13.59,13.42,7.32,17.77,6,22H3.19C3.27,21.47,3.37,20.9,3.48,20.29Zm52.11,6a8.33,8.33,0,0,1-1.84.56c-.38.07-.66.11-.81.12H9.14a16.4,16.4,0,0,1-6.42-.92,4.81,4.81,0,0,1-.59-.33L2.73,24H57.87A3.72,3.72,0,0,1,55.59,26.32Z"/><path class="cls-1" d="M27,19a4,4,0,1,0-4-4A4,4,0,0,0,27,19Zm0-6a2,2,0,1,1-2,2A2,2,0,0,1,27,13Z"/></g></g></svg>