<svg xmlns="http://www.w3.org/2000/svg" viewBox="0 0 47.98 48"><defs><style>.cls-1{fill:#00becc;}</style></defs><title>m-shirt-1Recurso 1</title><g id="Capa_2" data-name="Capa 2"><g id="Capa_1-2" data-name="Capa 1"><path class="cls-1" d="M47.84,16.4c-.2-.3-5.9-9.7-6.2-9.9s-4-3-4.2-3.1S29.14,0,28.84,0h-9.7a.37.37,0,0,0-.3.1L8.44,3.9a1.76,1.76,0,0,0-.5.4L.14,16.8a1,1,0,0,0,.4,1.4l7.2,3.6a1.06,1.06,0,0,0,1.2-.2,22.2,22.2,0,0,0,1.7-2.1c.1,6,.1,14.9.1,27.5a.94.94,0,0,0,1,1h24.6a.94.94,0,0,0,1-1V19.5a5.93,5.93,0,0,0,1.6,1.8,1,1,0,0,0,.9,0l7.6-3.6A.86.86,0,0,0,47.84,16.4ZM19.34,2h9.3l1.5.6c-1,1.5-3.5,2.6-6.2,2.6s-5.2-1.1-6.2-2.6ZM7.94,19.7l-5.5-2.8L8.74,6.8a19.12,19.12,0,0,1,1.7,8.6C10.34,16.5,8.94,18.4,7.94,19.7ZM12.64,46c0-25.6-.1-28.9-.2-30.3v-.1h0a20.59,20.59,0,0,0-2.2-10.2l5.6-2.1c1.3,2.3,4.5,3.9,8.1,3.9s6.8-1.5,8.1-3.8c5.2,2.1,4.3,1.6,5.4,2.5A19.69,19.69,0,0,0,35.24,16V46Zm26.9-26.7a26.62,26.62,0,0,1-2.3-3.8A16.69,16.69,0,0,1,39,7l1.2.9,5.2,8.5Z"/></g></g></svg>